<svg width="50" height="50" viewBox="0 0 50 50" fill="none" xmlns="http://www.w3.org/2000/svg">
<rect width="50" height="50" rx="25" fill="black" fill-opacity="0.5"/>
<path d="M12.5 25C12.5 18.0964 18.0964 12.5 25 12.5C31.9035 12.5 37.5 18.0964 37.5 25C37.5 31.9035 31.9035 37.5 25 37.5H12.5L16.1612 33.8389C13.8991 31.5767 12.5 28.4517 12.5 25ZM18.5355 35H25C30.5229 35 35 30.5229 35 25C35 19.4771 30.5229 15 25 15C19.4771 15 15 19.4771 15 25C15 27.6905 16.0641 30.2061 17.9289 32.0711L19.6967 33.8389L18.5355 35ZM20 26.25H30C30 29.0114 27.7614 31.25 25 31.25C22.2386 31.25 20 29.0114 20 26.25Z" fill="white"/>
</svg>
