<svg width="154" height="29" viewBox="0 0 154 29" fill="none" xmlns="http://www.w3.org/2000/svg">
<path d="M5.496 23L-4.89131e-06 10.184H3.12L7.848 21.488H6.312L11.208 10.184H14.088L8.592 23H5.496ZM15.963 23V10.184H18.963V23H15.963ZM17.475 8.072C16.915 8.072 16.451 7.896 16.083 7.544C15.731 7.192 15.555 6.768 15.555 6.272C15.555 5.76 15.731 5.336 16.083 5C16.451 4.648 16.915 4.472 17.475 4.472C18.035 4.472 18.491 4.64 18.843 4.976C19.211 5.296 19.395 5.704 19.395 6.2C19.395 6.728 19.219 7.176 18.867 7.544C18.515 7.896 18.051 8.072 17.475 8.072ZM28.9245 23.168C27.5005 23.168 26.2525 22.888 25.1805 22.328C24.1245 21.752 23.3005 20.968 22.7085 19.976C22.1325 18.984 21.8445 17.856 21.8445 16.592C21.8445 15.312 22.1245 14.184 22.6845 13.208C23.2605 12.216 24.0445 11.44 25.0365 10.88C26.0445 10.32 27.1885 10.04 28.4685 10.04C29.7165 10.04 30.8285 10.312 31.8045 10.856C32.7805 11.4 33.5485 12.168 34.1085 13.16C34.6685 14.152 34.9485 15.32 34.9485 16.664C34.9485 16.792 34.9405 16.936 34.9245 17.096C34.9245 17.256 34.9165 17.408 34.9005 17.552H24.2205V15.56H33.3165L32.1405 16.184C32.1565 15.448 32.0045 14.8 31.6845 14.24C31.3645 13.68 30.9245 13.24 30.3645 12.92C29.8205 12.6 29.1885 12.44 28.4685 12.44C27.7325 12.44 27.0845 12.6 26.5245 12.92C25.9805 13.24 25.5485 13.688 25.2285 14.264C24.9245 14.824 24.7725 15.488 24.7725 16.256V16.736C24.7725 17.504 24.9485 18.184 25.3005 18.776C25.6525 19.368 26.1485 19.824 26.7885 20.144C27.4285 20.464 28.1645 20.624 28.9965 20.624C29.7165 20.624 30.3645 20.512 30.9405 20.288C31.5165 20.064 32.0285 19.712 32.4765 19.232L34.0845 21.08C33.5085 21.752 32.7805 22.272 31.9005 22.64C31.0365 22.992 30.0445 23.168 28.9245 23.168ZM40.4278 23L35.7238 10.184H38.5558L42.5878 21.488H41.2438L45.4678 10.184H47.9878L52.0918 21.488H50.7718L54.9238 10.184H57.5878L52.8598 23H49.9798L46.2358 12.992H47.1238L43.3078 23H40.4278ZM66.2833 23V10.184H69.1393V13.592L68.6353 12.584C69.0673 11.752 69.6913 11.12 70.5073 10.688C71.3393 10.256 72.2833 10.04 73.3393 10.04C74.5393 10.04 75.5793 10.336 76.4593 10.928C77.3553 11.52 77.9473 12.416 78.2353 13.616L77.0593 13.208C77.4753 12.248 78.1633 11.48 79.1233 10.904C80.0833 10.328 81.1953 10.04 82.4593 10.04C83.4833 10.04 84.3873 10.24 85.1713 10.64C85.9713 11.04 86.5953 11.656 87.0433 12.488C87.4913 13.304 87.7153 14.36 87.7153 15.656V23H84.7153V16.04C84.7153 14.904 84.4673 14.056 83.9713 13.496C83.4753 12.936 82.7633 12.656 81.8353 12.656C81.1793 12.656 80.5953 12.8 80.0833 13.088C79.5873 13.376 79.1953 13.8 78.9073 14.36C78.6353 14.92 78.4993 15.632 78.4993 16.496V23H75.4993V16.04C75.4993 14.904 75.2513 14.056 74.7553 13.496C74.2593 12.936 73.5473 12.656 72.6193 12.656C71.9633 12.656 71.3793 12.8 70.8673 13.088C70.3713 13.376 69.9793 13.8 69.6913 14.36C69.4193 14.92 69.2833 15.632 69.2833 16.496V23H66.2833ZM97.3324 23.168C96.0204 23.168 94.8524 22.888 93.8284 22.328C92.8044 21.752 91.9964 20.968 91.4044 19.976C90.8124 18.984 90.5164 17.856 90.5164 16.592C90.5164 15.312 90.8124 14.184 91.4044 13.208C91.9964 12.216 92.8044 11.44 93.8284 10.88C94.8524 10.32 96.0204 10.04 97.3324 10.04C98.6604 10.04 99.8364 10.32 100.86 10.88C101.9 11.44 102.708 12.208 103.284 13.184C103.876 14.16 104.172 15.296 104.172 16.592C104.172 17.856 103.876 18.984 103.284 19.976C102.708 20.968 101.9 21.752 100.86 22.328C99.8364 22.888 98.6604 23.168 97.3324 23.168ZM97.3324 20.6C98.0684 20.6 98.7244 20.44 99.3004 20.12C99.8764 19.8 100.324 19.336 100.644 18.728C100.98 18.12 101.148 17.408 101.148 16.592C101.148 15.76 100.98 15.048 100.644 14.456C100.324 13.848 99.8764 13.384 99.3004 13.064C98.7244 12.744 98.0764 12.584 97.3564 12.584C96.6204 12.584 95.9644 12.744 95.3884 13.064C94.8284 13.384 94.3804 13.848 94.0444 14.456C93.7084 15.048 93.5404 15.76 93.5404 16.592C93.5404 17.408 93.7084 18.12 94.0444 18.728C94.3804 19.336 94.8284 19.8 95.3884 20.12C95.9644 20.44 96.6124 20.6 97.3324 20.6ZM107.041 23V10.184H109.897V13.712L109.561 12.68C109.945 11.816 110.545 11.16 111.361 10.712C112.193 10.264 113.225 10.04 114.457 10.04V12.896C114.329 12.864 114.209 12.848 114.097 12.848C113.985 12.832 113.873 12.824 113.761 12.824C112.625 12.824 111.721 13.16 111.049 13.832C110.377 14.488 110.041 15.472 110.041 16.784V23H107.041ZM122.909 23.168C121.485 23.168 120.237 22.888 119.165 22.328C118.109 21.752 117.285 20.968 116.693 19.976C116.117 18.984 115.829 17.856 115.829 16.592C115.829 15.312 116.109 14.184 116.669 13.208C117.245 12.216 118.029 11.44 119.021 10.88C120.029 10.32 121.173 10.04 122.453 10.04C123.701 10.04 124.813 10.312 125.789 10.856C126.765 11.4 127.533 12.168 128.093 13.16C128.653 14.152 128.933 15.32 128.933 16.664C128.933 16.792 128.925 16.936 128.909 17.096C128.909 17.256 128.901 17.408 128.885 17.552H118.205V15.56H127.301L126.125 16.184C126.141 15.448 125.989 14.8 125.669 14.24C125.349 13.68 124.909 13.24 124.349 12.92C123.805 12.6 123.173 12.44 122.453 12.44C121.717 12.44 121.069 12.6 120.509 12.92C119.965 13.24 119.533 13.688 119.213 14.264C118.909 14.824 118.757 15.488 118.757 16.256V16.736C118.757 17.504 118.933 18.184 119.285 18.776C119.637 19.368 120.133 19.824 120.773 20.144C121.413 20.464 122.149 20.624 122.981 20.624C123.701 20.624 124.349 20.512 124.925 20.288C125.501 20.064 126.013 19.712 126.461 19.232L128.069 21.08C127.493 21.752 126.765 22.272 125.885 22.64C125.021 22.992 124.029 23.168 122.909 23.168Z" fill="#6C6C6C"/>
<path d="M136.888 23.7808L135.12 22.0133L149.414 7.71918H142.432V5.21918H153.682V16.4692H151.182V9.4869L136.888 23.7808Z" fill="#6C6C6C"/>
</svg>
