<svg width="166" height="30" viewBox="0 0 166 30" fill="none" xmlns="http://www.w3.org/2000/svg">
<path d="M6.376 24L0.88 11.184H4L8.728 22.488H7.192L12.088 11.184H14.968L9.472 24H6.376ZM16.843 24V11.184H19.843V24H16.843ZM18.355 9.072C17.795 9.072 17.331 8.896 16.963 8.544C16.611 8.192 16.435 7.768 16.435 7.272C16.435 6.76 16.611 6.336 16.963 6C17.331 5.648 17.795 5.472 18.355 5.472C18.915 5.472 19.371 5.64 19.723 5.976C20.091 6.296 20.275 6.704 20.275 7.2C20.275 7.728 20.099 8.176 19.747 8.544C19.395 8.896 18.931 9.072 18.355 9.072ZM29.8045 24.168C28.3805 24.168 27.1325 23.888 26.0605 23.328C25.0045 22.752 24.1805 21.968 23.5885 20.976C23.0125 19.984 22.7245 18.856 22.7245 17.592C22.7245 16.312 23.0045 15.184 23.5645 14.208C24.1405 13.216 24.9245 12.44 25.9165 11.88C26.9245 11.32 28.0685 11.04 29.3485 11.04C30.5965 11.04 31.7085 11.312 32.6845 11.856C33.6605 12.4 34.4285 13.168 34.9885 14.16C35.5485 15.152 35.8285 16.32 35.8285 17.664C35.8285 17.792 35.8205 17.936 35.8045 18.096C35.8045 18.256 35.7965 18.408 35.7805 18.552H25.1005V16.56H34.1965L33.0205 17.184C33.0365 16.448 32.8845 15.8 32.5645 15.24C32.2445 14.68 31.8045 14.24 31.2445 13.92C30.7005 13.6 30.0685 13.44 29.3485 13.44C28.6125 13.44 27.9645 13.6 27.4045 13.92C26.8605 14.24 26.4285 14.688 26.1085 15.264C25.8045 15.824 25.6525 16.488 25.6525 17.256V17.736C25.6525 18.504 25.8285 19.184 26.1805 19.776C26.5325 20.368 27.0285 20.824 27.6685 21.144C28.3085 21.464 29.0445 21.624 29.8765 21.624C30.5965 21.624 31.2445 21.512 31.8205 21.288C32.3965 21.064 32.9085 20.712 33.3565 20.232L34.9645 22.08C34.3885 22.752 33.6605 23.272 32.7805 23.64C31.9165 23.992 30.9245 24.168 29.8045 24.168ZM41.3078 24L36.6038 11.184H39.4358L43.4678 22.488H42.1238L46.3478 11.184H48.8678L52.9718 22.488H51.6518L55.8038 11.184H58.4678L53.7398 24H50.8598L47.1158 13.992H48.0038L44.1878 24H41.3078ZM67.1633 24V11.184H70.0193V14.592L69.5153 13.584C69.9473 12.752 70.5713 12.12 71.3873 11.688C72.2193 11.256 73.1633 11.04 74.2193 11.04C75.4193 11.04 76.4593 11.336 77.3393 11.928C78.2353 12.52 78.8273 13.416 79.1153 14.616L77.9393 14.208C78.3553 13.248 79.0433 12.48 80.0033 11.904C80.9633 11.328 82.0753 11.04 83.3393 11.04C84.3633 11.04 85.2673 11.24 86.0513 11.64C86.8513 12.04 87.4753 12.656 87.9233 13.488C88.3713 14.304 88.5953 15.36 88.5953 16.656V24H85.5953V17.04C85.5953 15.904 85.3473 15.056 84.8513 14.496C84.3553 13.936 83.6433 13.656 82.7153 13.656C82.0593 13.656 81.4753 13.8 80.9633 14.088C80.4673 14.376 80.0753 14.8 79.7873 15.36C79.5153 15.92 79.3793 16.632 79.3793 17.496V24H76.3793V17.04C76.3793 15.904 76.1313 15.056 75.6353 14.496C75.1393 13.936 74.4273 13.656 73.4993 13.656C72.8433 13.656 72.2593 13.8 71.7473 14.088C71.2513 14.376 70.8593 14.8 70.5713 15.36C70.2993 15.92 70.1633 16.632 70.1633 17.496V24H67.1633ZM98.2124 24.168C96.9004 24.168 95.7324 23.888 94.7084 23.328C93.6844 22.752 92.8764 21.968 92.2844 20.976C91.6924 19.984 91.3964 18.856 91.3964 17.592C91.3964 16.312 91.6924 15.184 92.2844 14.208C92.8764 13.216 93.6844 12.44 94.7084 11.88C95.7324 11.32 96.9004 11.04 98.2124 11.04C99.5404 11.04 100.716 11.32 101.74 11.88C102.78 12.44 103.588 13.208 104.164 14.184C104.756 15.16 105.052 16.296 105.052 17.592C105.052 18.856 104.756 19.984 104.164 20.976C103.588 21.968 102.78 22.752 101.74 23.328C100.716 23.888 99.5404 24.168 98.2124 24.168ZM98.2124 21.6C98.9484 21.6 99.6044 21.44 100.18 21.12C100.756 20.8 101.204 20.336 101.524 19.728C101.86 19.12 102.028 18.408 102.028 17.592C102.028 16.76 101.86 16.048 101.524 15.456C101.204 14.848 100.756 14.384 100.18 14.064C99.6044 13.744 98.9564 13.584 98.2364 13.584C97.5004 13.584 96.8444 13.744 96.2684 14.064C95.7084 14.384 95.2604 14.848 94.9244 15.456C94.5884 16.048 94.4204 16.76 94.4204 17.592C94.4204 18.408 94.5884 19.12 94.9244 19.728C95.2604 20.336 95.7084 20.8 96.2684 21.12C96.8444 21.44 97.4924 21.6 98.2124 21.6ZM107.921 24V11.184H110.777V14.712L110.441 13.68C110.825 12.816 111.425 12.16 112.241 11.712C113.073 11.264 114.105 11.04 115.337 11.04V13.896C115.209 13.864 115.089 13.848 114.977 13.848C114.865 13.832 114.753 13.824 114.641 13.824C113.505 13.824 112.601 14.16 111.929 14.832C111.257 15.488 110.921 16.472 110.921 17.784V24H107.921ZM123.789 24.168C122.365 24.168 121.117 23.888 120.045 23.328C118.989 22.752 118.165 21.968 117.573 20.976C116.997 19.984 116.709 18.856 116.709 17.592C116.709 16.312 116.989 15.184 117.549 14.208C118.125 13.216 118.909 12.44 119.901 11.88C120.909 11.32 122.053 11.04 123.333 11.04C124.581 11.04 125.693 11.312 126.669 11.856C127.645 12.4 128.413 13.168 128.973 14.16C129.533 15.152 129.813 16.32 129.813 17.664C129.813 17.792 129.805 17.936 129.789 18.096C129.789 18.256 129.781 18.408 129.765 18.552H119.085V16.56H128.181L127.005 17.184C127.021 16.448 126.869 15.8 126.549 15.24C126.229 14.68 125.789 14.24 125.229 13.92C124.685 13.6 124.053 13.44 123.333 13.44C122.597 13.44 121.949 13.6 121.389 13.92C120.845 14.24 120.413 14.688 120.093 15.264C119.789 15.824 119.637 16.488 119.637 17.256V17.736C119.637 18.504 119.813 19.184 120.165 19.776C120.517 20.368 121.013 20.824 121.653 21.144C122.293 21.464 123.029 21.624 123.861 21.624C124.581 21.624 125.229 21.512 125.805 21.288C126.381 21.064 126.893 20.712 127.341 20.232L128.949 22.08C128.373 22.752 127.645 23.272 126.765 23.64C125.901 23.992 124.909 24.168 123.789 24.168Z" fill="#333333"/>
<path d="M143.045 24.7228L141.277 22.9553L155.571 8.66113H148.589V6.16113H159.839V17.4112H157.339V10.4289L143.045 24.7228Z" fill="#333333"/>
</svg>
